<svg width="170" height="106" viewBox="0 0 250 106" fill="none" xmlns="http://www.w3.org/2000/svg">
<path d="M54.1482 2.11611C53.7626 3.43686 51.5042 7.75468 37.0176 35.2872C34.2635 40.4686 29.1409 50.2726 25.5605 57.1303C17.9041 71.8617 16.6923 73.6904 15.6458 72.8777C14.5441 72.0649 12.3408 66.5787 11.2392 62.0577C10.0825 57.2319 10.3579 47.8851 11.7349 43.1609C13.1671 38.4366 17.1881 31.3249 20.5481 27.5659C23.6877 24.0608 29.857 19.4382 33.8229 17.6095C36.9075 16.1871 38.1193 14.8156 40.3776 10.193C41.4793 8.00867 42.3606 6.07835 42.3606 5.97676C42.3606 5.21479 37.4032 6.78953 31.6196 9.43102C17.4084 15.9332 8.37492 25.28 3.80311 38.3351C1.76507 44.0244 1.32441 47.1739 1.37949 55.3524C1.37949 62.1593 1.59982 64.1404 2.64638 67.5439C3.80311 71.3029 6.66738 77.1955 9.91722 82.3769L11.2392 84.5104L5.73098 94.4668C2.70146 99.953 0.112604 104.728 0.00243928 105.033C-0.107725 105.388 3.52769 102.29 8.04443 98.1242C12.5061 94.0096 16.6372 90.6569 17.133 90.6569C17.6287 90.6569 19.3363 91.7237 20.9887 92.9936C27.6537 98.2766 37.5134 102.29 47.0426 103.61C54.3134 104.626 60.3174 104.322 67.9187 102.594C73.4269 101.325 83.5069 97.2099 84.0027 95.9907C84.2781 95.3811 80.0918 88.117 79.4859 88.117C79.3207 88.117 77.2827 89.0314 74.859 90.149C64.6688 94.8732 54.0931 96.0415 43.8478 93.5524C35.6957 91.5713 25.2851 85.8819 25.2851 83.4436C25.2851 82.9356 32.2255 76.1795 41.8649 67.4423C50.9534 59.1114 58.1141 52.2537 57.8387 52.1521C57.5082 52.0505 56.1862 52.3045 54.8642 52.7109C53.5973 53.1681 50.5127 54.184 48.0891 54.9968C43.4622 56.5207 41.975 56.4699 42.5258 54.7936C42.6911 54.2348 44.7291 50.0694 47.0426 45.4468C49.4111 40.8242 52.1101 35.3888 53.1567 33.3568C54.1482 31.3757 55.3049 29.6994 55.7455 29.6994C56.1311 29.6994 57.5633 31.5789 58.8852 33.8648C65.8807 46.1071 65.0544 45.2944 68.9653 44.4308C73.3718 43.4656 74.1981 44.1768 71.6643 46.7167C67.8085 50.5774 67.2577 48.647 77.7233 67.7471C88.6847 87.7107 90.7227 91.1649 91.3837 91.1649C92.0447 91.1649 97.2775 86.0343 98.9299 83.7992C99.646 82.8341 100.197 81.6657 100.197 81.2085C100.197 80.7513 98.324 76.9923 96.0106 72.9285C93.6971 68.8646 90.282 62.8705 88.4643 59.6702C86.6466 56.4699 83.9476 51.7457 82.5155 49.155C81.0282 46.5643 79.8164 44.126 79.8164 43.6688C79.8164 43.2625 80.863 41.8401 82.185 40.5194L84.4984 38.1827L80.8079 38.5382L77.1174 38.9446L75.4099 36.5063C74.5285 35.1856 73.7574 33.8648 73.7574 33.6108C73.7574 32.7473 55.4701 0.74456 54.9744 0.74456C54.699 0.74456 54.3134 1.35414 54.1482 2.11611Z" fill="#fff"/>
<path d="M68.6898 6.63734C71.0033 11.6663 73.9226 16.5429 74.9692 17.2541C75.6852 17.7113 77.8334 19.032 79.8164 20.1496C81.7994 21.318 85.5449 24.315 88.1338 26.8041L92.9259 31.3251L94.9089 30.7156C98.1587 29.7504 99.0951 31.122 96.6164 33.2555C94.9089 34.7286 94.9089 35.9478 96.3961 39.0972C97.9384 42.3483 99.1502 50.0696 98.985 56.2161L98.9299 61.0927L101.904 66.4773C103.557 69.4236 105.099 71.8111 105.43 71.7095C106.696 71.3031 109.01 59.3656 109.01 53.2699C109.01 47.8853 107.798 41.5863 105.705 36.151C104.824 33.7635 104.053 31.5791 104.053 31.3251C104.053 31.0204 105.209 29.4964 106.641 27.8709L109.23 24.9754L106.752 25.331C99.701 26.3469 100.803 26.7025 96.7817 22.1815C94.7437 19.9972 91.0532 16.6953 88.5194 14.9682C83.9476 11.7171 73.3718 6.63734 70.0118 6.02776C68.4144 5.72298 68.3042 5.77377 68.6898 6.63734Z" fill="#fff"/>
<path d="M240.326 30.9185C235.093 33.0521 234.432 39.4018 239.114 42.5513C242.199 44.634 247.486 43.3132 249.194 40.0622C251.012 36.4555 249.69 32.8997 245.889 31.2233C243.245 30.055 242.639 30.0042 240.326 30.9185ZM247.156 32.9505C248.919 34.4744 249.194 34.9824 249.194 37.0143C249.194 38.843 248.864 39.605 247.597 40.8241C243.576 44.6848 236.801 42.3989 236.801 37.2175C236.801 34.6776 237.517 33.4584 239.72 32.2393C242.419 30.7154 244.732 30.9185 247.156 32.9505Z" fill="#fff"/>
<path d="M240.491 33.6111C240.271 33.7635 240.105 35.389 240.105 37.1669C240.105 39.656 240.271 40.3672 240.932 40.3672C241.427 40.3672 241.758 39.91 241.758 39.0972C241.758 37.4717 242.254 37.4717 243.741 39.1988C245.173 40.8752 246.109 40.4688 244.843 38.7417C244.182 37.7765 244.126 37.4209 244.787 36.6589C245.834 35.2874 245.228 33.9158 243.3 33.5603C241.207 33.1539 240.932 33.1539 240.491 33.6111ZM243.686 35.5414C243.686 36.1002 243.245 36.6081 242.749 36.7097C241.978 36.8621 241.758 36.5573 241.758 35.5414C241.758 34.5254 241.978 34.2206 242.749 34.373C243.245 34.4746 243.686 34.9826 243.686 35.5414Z" fill="#fff"/>
<path d="M190.807 47.6817C188.659 48.5453 186.455 50.9328 185.464 53.4219C185.078 54.4887 184.748 57.2825 184.748 59.67C184.748 63.4291 184.968 64.3435 186.345 66.5786C190.697 73.8935 201.438 72.7251 204.247 64.6482C205.183 62.0067 205.073 56.2666 204.027 53.5743C201.989 48.1897 196.04 45.5482 190.807 47.6817ZM197.141 53.8791C197.968 55.8602 197.802 63.0227 196.921 65.0038C195.929 67.0865 194.277 67.3913 193.065 65.6134C191.192 62.9211 191.413 54.2855 193.396 52.4567C194.663 51.2884 196.37 51.9488 197.141 53.8791Z" fill="#fff"/>
<path d="M122.78 48.7995C122.45 49.5106 120.963 53.9301 119.42 58.5527C117.878 63.2261 116.281 68.0011 115.895 69.1694L115.124 71.3538H118.319H121.514L122.23 69.0679L122.946 66.7819H126.636H130.382L130.988 69.0679L131.594 71.3538H135.449C137.598 71.3538 139.305 71.1506 139.305 70.9474C139.305 70.541 138.203 67.2391 133.742 53.9301L131.538 47.4787H127.407C123.497 47.4787 123.276 47.5295 122.78 48.7995ZM127.903 58.0955C128.399 59.6194 128.674 61.0418 128.509 61.2958C128.123 61.9053 124.433 61.8037 124.433 61.1942C124.433 59.8734 126.306 54.5904 126.691 54.946C126.912 55.1492 127.462 56.5716 127.903 58.0955Z" fill="#fff"/>
<path d="M142.059 59.4162V71.3538H145.089C147.898 71.3538 148.118 71.2522 148.449 70.033C148.669 69.271 148.669 65.8168 148.504 62.3117L148.228 55.9112L149.936 59.0099C150.927 60.6862 153.076 64.1912 154.728 66.7311L157.757 71.3538H160.952H164.092V59.4162V47.4787H161.007H157.868L158.143 54.0825C158.308 57.6891 158.363 60.6862 158.253 60.6862C158.198 60.6862 156.215 57.6891 153.847 54.0825L149.55 47.4787H145.805H142.059V59.4162Z" fill="#fff"/>
<path d="M174.007 55.5048C174.007 65.0548 173.731 65.7659 169.82 65.7659H167.342L167.507 68.4074L167.672 71.0997L172.189 71.2521C176.706 71.4045 176.761 71.3537 178.799 69.6266L180.892 67.8995L181.057 57.6891L181.278 47.4787H177.642H174.007V55.5048Z" fill="#fff"/>
<path d="M207.607 50.0186V52.5585H212.84C215.704 52.5585 218.073 52.7617 218.073 53.0157C218.073 53.4221 212.179 60.737 208.654 64.75C207.387 66.1216 207.056 67.0359 207.056 68.9155V71.3538H217.797H228.538V68.5599V65.8168L222.755 65.6644L216.971 65.512L222.479 58.7559C227.547 52.5585 227.987 51.8473 227.987 49.7646V47.4787H217.797H207.607V50.0186Z" fill="#fff"/>
</svg>